<?xml version="1.0" encoding="utf-8" standalone="yes"?>
<!DOCTYPE svg PUBLIC "-//W3C//DTD SVG 1.1//EN" "http://www.w3.org/Graphics/SVG/1.1/DTD/svg11.dtd">
<svg width="726" height="583" viewBox="0 0 726 583" style="fill:none;stroke:none;fill-rule:evenodd;clip-rule:evenodd;stroke-linecap:round;stroke-linejoin:round;stroke-miterlimit:1.5;" version="1.1" xmlns="http://www.w3.org/2000/svg" xmlns:xlink="http://www.w3.org/1999/xlink"><style id="fontImports">@import url("https://fonts.googleapis.com/css2?family=Shantell+Sans:wght@300..800&amp;display=block");</style><g id="blend" style="mix-blend-mode:multiply"><g id="g-root-6.arrow-6_sy_dcyybcbev6rx-fill" data-item-order="-194007" data-item-id="6.arrow-6_sy_dcyybcbev6rx" data-item-class="ScenePart Indexed Fill Stroke" data-item-index="6" data-renderer-id="0" transform="translate(146.26400756835938, 117.720947265625)"><g id="6.arrow-6_sy_dcyybcbev6rx-fill" stroke="none" fill="#f0cffd"><g><path d="M 218.636 81.079L 212.436 66.879L 192.136 70.179L 200.336 89.079ZM 192.136 70.179L 188.236 116.179L 208.536 112.779L 212.436 66.879ZM 208.536 112.779L 174.736 35.379L 155.336 40.979L 188.236 116.179ZM 155.336 40.979L 168.536 127.979L 187.936 122.379L 174.736 35.379ZM 187.936 122.379L 149.236 31.779L 129.836 37.179L 168.536 127.979ZM 129.836 37.179L 143.736 134.979L 163.236 129.879L 149.236 31.779ZM 163.236 129.879L 130.436 45.179L 111.036 50.579L 143.736 134.979ZM 111.036 50.579L 127.536 143.979L 146.936 138.379L 130.436 45.179ZM 146.936 138.379L 111.236 50.079L 91.936 55.779L 127.536 143.979ZM 91.936 55.779L 110.736 155.979L 130.136 150.579L 111.236 50.079ZM 130.136 150.579L 97.736 63.579L 77.736 67.279L 110.736 155.979ZM 77.736 67.279L 78.136 141.279L 98.036 137.279L 97.736 63.579ZM 98.036 137.279L 75.836 83.179L 55.736 86.879L 78.136 141.279ZM 55.736 86.879L 54.036 140.679L 74.136 136.579L 75.836 83.179ZM 74.136 136.579L 57.436 100.679L 36.636 103.379L 54.036 140.679ZM 36.636 103.379L 27.836 150.879L 48.536 149.279L 57.436 100.679ZM 48.536 149.279L 38.736 121.479L 17.836 122.579L 27.836 150.879ZM 17.836 122.579L 10.536 152.979L 29.936 157.679L 38.736 121.479Z" fill-rule="nonzero"></path></g></g></g><g id="g-root-5.arrow-5_sy_m8lyk8bev5z8-fill" data-item-order="-194005" data-item-id="5.arrow-5_sy_m8lyk8bev5z8" data-item-class="ScenePart Indexed Fill Stroke" data-item-index="5" data-renderer-id="0" transform="translate(117.81201171875, 242.68505859375)"><g id="5.arrow-5_sy_m8lyk8bev5z8-fill" stroke="none" fill="#cef3ff"><g><path d="M 76.188 218.115L 59.888 181.515L 45.088 197.515L 57.888 226.215ZM 45.088 197.515L 76.088 208.315L 85.888 190.515L 59.888 181.515ZM 85.888 190.515L 39.788 153.915L 30.588 172.215L 76.088 208.315ZM 30.588 172.215L 80.288 185.315L 88.088 166.715L 39.788 153.915ZM 88.088 166.715L 39.388 138.115L 32.388 157.215L 80.288 185.315ZM 32.388 157.215L 112.888 171.515L 119.488 152.315L 39.388 138.115ZM 119.488 152.315L 35.388 108.115L 28.788 127.215L 112.888 171.515ZM 28.788 127.215L 121.888 144.815L 126.888 125.415L 35.388 108.115ZM 126.888 125.415L 31.188 94.015L 26.688 113.615L 121.888 144.815ZM 26.688 113.615L 121.788 126.315L 126.488 106.715L 31.188 94.015ZM 126.488 106.715L 28.388 72.415L 24.188 92.115L 121.788 126.315ZM 24.188 92.115L 120.188 100.015L 124.488 80.315L 28.388 72.415ZM 124.488 80.315L 38.188 49.115L 33.688 68.715L 120.188 100.015ZM 33.688 68.715L 142.388 80.315L 146.788 60.715L 38.188 49.115ZM 146.788 60.715L 53.188 27.615L 47.588 46.915L 142.388 80.315ZM 47.588 46.915L 125.788 64.315L 130.188 44.815L 53.188 27.615Z" fill-rule="nonzero"></path></g></g></g><g id="g-root-4.arrow-4_sy_m8lyk8bev5z7-fill" data-item-order="-194003" data-item-id="4.arrow-4_sy_m8lyk8bev5z7" data-item-class="ScenePart Indexed Fill Stroke" data-item-index="4" data-renderer-id="0" transform="translate(176.68402099609375, 397.31201171875)"><g id="4.arrow-4_sy_m8lyk8bev5z7-fill" stroke="none" fill="#fde6cf"><g><path d="M 34.116 9.388L 19.916 26.888L 31.816 43.888L 49.616 21.988ZM 31.816 43.888L 83.516 26.088L 72.416 8.688L 19.916 26.888ZM 72.416 8.688L 10.716 73.088L 23.516 88.588L 83.516 26.088ZM 23.516 88.588L 100.016 38.388L 86.916 23.088L 10.716 73.088ZM 86.916 23.088L 27.716 88.188L 41.316 102.988L 100.016 38.388ZM 41.316 102.988L 112.116 49.888L 98.516 35.088L 27.716 88.188ZM 98.516 35.088L 39.416 101.888L 53.116 116.588L 112.116 49.888ZM 53.116 116.588L 130.816 57.788L 116.116 43.788L 39.416 101.888ZM 116.116 43.788L 64.116 121.388L 79.216 134.688L 130.816 57.788ZM 79.216 134.688L 154.116 68.788L 139.716 54.788L 64.116 121.388ZM 139.716 54.788L 78.916 127.588L 91.716 143.488L 154.116 68.788ZM 91.716 143.488L 159.016 108.288L 146.916 92.088L 78.916 127.588ZM 146.916 92.088L 104.216 136.788L 116.916 152.488L 159.016 108.288ZM 116.916 152.488L 166.316 122.288L 152.116 107.488L 104.216 136.788ZM 152.116 107.488L 130.916 139.188L 143.716 155.988L 166.316 122.288ZM 143.716 155.988L 187.416 141.388L 176.516 123.988L 130.916 139.188ZM 176.516 123.988L 157.416 143.288L 171.616 157.388L 187.416 141.388Z" fill-rule="nonzero"></path></g></g></g><g id="g-root-3.arrow-3_sy_qofgoobev56y-fill" data-item-order="-194001" data-item-id="3.arrow-3_sy_qofgoobev56y" data-item-class="ScenePart Indexed Fill Stroke" data-item-index="3" data-renderer-id="0" transform="translate(317.18798828125, 386.51806640625)"><g id="3.arrow-3_sy_qofgoobev56y-fill" stroke="none" fill="#fff9ce"><g><path d="M 222.112 49.282L 213.512 38.082L 191.912 42.682L 206.212 61.382ZM 191.912 42.682L 183.312 79.082L 204.012 78.382L 213.512 38.082ZM 204.012 78.382L 193.012 43.182L 173.012 46.382L 183.312 79.082ZM 173.012 46.382L 173.412 96.682L 193.412 92.982L 193.012 43.182ZM 193.412 92.982L 178.112 51.982L 158.212 55.882L 173.412 96.682ZM 158.212 55.882L 159.912 113.582L 179.812 109.182L 178.112 51.982ZM 179.812 109.182L 153.712 47.582L 133.712 51.782L 159.912 113.582ZM 133.712 51.782L 135.212 128.282L 155.212 124.382L 153.712 47.582ZM 155.212 124.382L 121.712 36.382L 102.212 41.382L 135.212 128.282ZM 102.212 41.382L 116.512 143.282L 136.012 138.682L 121.712 36.382ZM 136.012 138.682L 106.812 52.482L 87.112 56.482L 116.512 143.282ZM 87.112 56.482L 94.312 147.482L 114.012 143.682L 106.812 52.482ZM 114.012 143.682L 87.012 57.382L 67.412 61.582L 94.312 147.482ZM 67.412 61.582L 79.312 154.982L 98.812 149.782L 87.012 57.382ZM 98.812 149.782L 59.612 55.182L 39.912 60.082L 79.312 154.982ZM 39.912 60.082L 48.212 150.782L 67.912 146.682L 59.612 55.182ZM 67.912 146.682L 44.412 74.182L 25.412 80.382L 48.212 150.782Z" fill-rule="nonzero"></path></g></g></g><g id="g-root-2.arrow-2_sy_qofgoobev56x-fill" data-item-order="-193999" data-item-id="2.arrow-2_sy_qofgoobev56x" data-item-class="ScenePart Indexed Fill Stroke" data-item-index="2" data-renderer-id="0" transform="translate(419.12200927734375, 206.8809814453125)"><g id="2.arrow-2_sy_qofgoobev56x-fill" stroke="none" fill="#d5f7e8"><g><path d="M 99.678 26.419L 87.778 18.419L 74.778 33.819L 88.478 43.019ZM 74.778 33.819L 104.578 65.219L 113.878 45.919L 87.778 18.419ZM 113.878 45.919L 81.278 43.119L 75.778 62.719L 104.578 65.219ZM 75.778 62.719L 119.078 84.519L 125.078 65.119L 81.278 43.119ZM 125.078 65.119L 80.978 58.819L 73.878 78.019L 119.078 84.519ZM 73.878 78.019L 126.178 111.219L 133.378 92.119L 80.978 58.819ZM 133.378 92.119L 44.178 78.019L 38.678 97.419L 126.178 111.219ZM 38.678 97.419L 126.278 133.919L 131.778 114.619L 44.178 78.019ZM 131.778 114.619L 34.278 98.719L 29.378 118.219L 126.278 133.919ZM 29.378 118.219L 127.578 152.019L 132.078 132.419L 34.278 98.719ZM 132.078 132.419L 41.278 121.819L 36.178 141.419L 127.578 152.019ZM 36.178 141.419L 124.078 177.919L 129.878 158.619L 41.278 121.819ZM 129.878 158.619L 45.678 142.519L 39.478 161.719L 124.078 177.919ZM 39.478 161.719L 125.878 201.419L 132.178 182.319L 45.678 142.519ZM 132.178 182.319L 22.378 159.119L 15.978 178.219L 125.878 201.419ZM 15.978 178.219L 107.678 221.019L 114.078 201.919L 22.378 159.119ZM 114.078 201.919L 38.878 185.819L 27.978 203.919L 107.678 221.019ZM 27.978 203.919L 51.478 231.819L 66.778 218.919L 38.878 185.819Z" fill-rule="nonzero"></path></g></g></g><g id="g-root-1.arrow-1_sy_zk2gxkbev4e8-fill" data-item-order="-193997" data-item-id="1.arrow-1_sy_zk2gxkbev4e8" data-item-class="ScenePart Indexed Indexed_1 Fill Stroke" data-item-index="1" data-renderer-id="0" transform="translate(302.635009765625, 125.9859619140625)"><g id="1.arrow-1_sy_zk2gxkbev4e8-fill" stroke="none" fill="#cedfff"><g><path d="M 32.065 34.814L 63.565 27.414L 52.765 9.414L 27.465 15.314ZM 52.765 9.414L 30.265 35.114L 41.565 52.514L 63.565 27.414ZM 41.565 52.514L 90.365 37.214L 78.265 20.114L 30.265 35.114ZM 78.265 20.114L 52.765 53.514L 66.765 68.114L 90.365 37.214ZM 66.765 68.114L 113.465 35.114L 99.365 20.614L 52.765 53.514ZM 99.365 20.614L 55.765 79.314L 69.865 93.914L 113.465 35.114ZM 69.865 93.914L 138.865 46.614L 125.265 31.714L 55.765 79.314ZM 125.265 31.714L 60.965 109.214L 75.165 123.414L 138.865 46.614ZM 75.165 123.414L 153.865 57.914L 139.665 43.714L 60.965 109.214ZM 139.665 43.714L 82.365 113.414L 96.365 127.914L 153.865 57.914ZM 96.365 127.914L 177.565 66.314L 163.165 52.014L 82.365 113.414ZM 163.165 52.014L 105.965 128.714L 120.565 142.614L 177.565 66.314ZM 120.565 142.614L 196.865 79.814L 182.465 65.714L 105.965 128.714ZM 182.465 65.714L 110.365 155.814L 124.565 170.014L 196.865 79.814ZM 124.565 170.014L 203.465 106.514L 188.865 92.614L 110.365 155.814ZM 188.865 92.614L 142.565 157.114L 158.865 168.714L 203.465 106.514Z" fill-rule="nonzero"></path></g></g></g><g id="g-root-tx_continuo_1upaw54bev4sk-fill" data-item-order="0" data-item-id="tx_continuo_1upaw54bev4sk" data-item-class="Label Stroke SceneTarget SceneTitle" data-item-index="none" data-renderer-id="0" transform="translate(50, 2)"><g id="tx_continuo_1upaw54bev4sk-fill" stroke="none" fill="#484848"><g><text style="font: bold 25px &quot;Shantell Sans&quot;, cursive; white-space: pre;"><tspan x="17.01" y="41.33" dominant-baseline="ideographic">Continuous Improvement Cycle in Business </tspan><tspan x="236.7" y="71.33" dominant-baseline="ideographic">Strategy</tspan></text></g></g></g><g id="g-root-tx_refinest_1unfgvsbev5s6-fill" data-item-order="0" data-item-id="tx_refinest_1unfgvsbev5s6" data-item-class="Label Stroke SceneTarget Indexed" data-item-index="6" data-renderer-id="0" transform="translate(86, 122)"><g id="tx_refinest_1unfgvsbev5s6-fill" stroke="none" fill="#484848"><g><text style="font: 20px &quot;Shantell Sans&quot;, cursive; white-space: pre;"><tspan x="54.93" y="35.33" dominant-baseline="ideographic">Refine </tspan><tspan x="18.65" y="59.33" dominant-baseline="ideographic">Strategies</tspan></text></g></g></g><g id="g-root-tx_analyzep_40cagbev47f-fill" data-item-order="0" data-item-id="tx_analyzep_40cagbev47f" data-item-class="Label Stroke SceneTarget Indexed Indexed_1" data-item-index="1" data-renderer-id="0" transform="translate(482, 122)"><g id="tx_analyzep_40cagbev47f-fill" stroke="none" fill="#484848"><g><text style="font: 20px &quot;Shantell Sans&quot;, cursive; white-space: pre;"><tspan x="12" y="35.33" dominant-baseline="ideographic">Analyze </tspan><tspan x="12" y="59.33" dominant-baseline="ideographic">Profitability</tspan></text></g></g></g><g id="g-root-1_1q6zho8bf6cqy-fill" data-item-order="0" data-item-id="1_1q6zho8bf6cqy" data-item-class="Icon Stroke SceneTarget Indexed InsideFill" data-item-index="6" data-renderer-id="0" transform="translate(242, 176)"></g><g id="g-root-mous_1uo1xywbf6e4v-fill" data-item-order="0" data-item-id="mous_1uo1xywbf6e4v" data-item-class="Icon Stroke SceneTarget Indexed Indexed_1 InsideFill" data-item-index="1" data-renderer-id="0" transform="translate(386, 176)"></g><g id="g-root-tx_monitoro_1hclflkbev47b-fill" data-item-order="0" data-item-id="tx_monitoro_1hclflkbev47b" data-item-class="Label Stroke SceneTarget Indexed" data-item-index="5" data-renderer-id="0" transform="translate(2, 314)"><g id="tx_monitoro_1hclflkbev47b-fill" stroke="none" fill="#484848"><g><text style="font: 20px &quot;Shantell Sans&quot;, cursive; white-space: pre;"><tspan x="37.9" y="35.33" dominant-baseline="ideographic">Monitor </tspan><tspan x="22.19" y="59.33" dominant-baseline="ideographic">Outcomes</tspan></text></g></g></g><g id="g-root-2_1cvizawbf6ebv-fill" data-item-order="0" data-item-id="2_1cvizawbf6ebv" data-item-class="Icon Stroke SceneTarget Indexed InsideFill" data-item-index="5" data-renderer-id="0" transform="translate(158, 314)"></g><g id="g-root-bars_8yeed4bf6cr2-fill" data-item-order="0" data-item-id="bars_8yeed4bf6cr2" data-item-class="Icon Stroke SceneTarget Indexed InsideFill" data-item-index="2" data-renderer-id="0" transform="translate(470, 314)"></g><g id="g-root-tx_gatherda_deudkobev5sa-fill" data-item-order="0" data-item-id="tx_gatherda_deudkobev5sa" data-item-class="Label Stroke SceneTarget Indexed" data-item-index="2" data-renderer-id="0" transform="translate(572, 326)"><g id="tx_gatherda_deudkobev5sa-fill" stroke="none" fill="#484848"><g><text style="font: 20px &quot;Shantell Sans&quot;, cursive; white-space: pre;"><tspan x="12.2" y="35.33" dominant-baseline="ideographic">Gather Data </tspan><tspan x="32.35" y="59.33" dominant-baseline="ideographic">Insights</tspan></text></g></g></g><g id="g-root-chec_zkoy0obf6cr0-fill" data-item-order="0" data-item-id="chec_zkoy0obf6cr0" data-item-class="Icon Stroke SceneTarget Indexed InsideFill" data-item-index="4" data-renderer-id="0" transform="translate(242, 452)"></g><g id="g-root-stra_m98fncbf6ebx-fill" data-item-order="0" data-item-id="stra_m98fncbf6ebx" data-item-class="Icon Stroke SceneTarget Indexed InsideFill" data-item-index="3" data-renderer-id="0" transform="translate(386, 452)"></g><g id="g-root-tx_implemen_1cwrxh4bev4zk-fill" data-item-order="0" data-item-id="tx_implemen_1cwrxh4bev4zk" data-item-class="Label Stroke SceneTarget Indexed" data-item-index="4" data-renderer-id="0" transform="translate(2, 506)"><g id="tx_implemen_1cwrxh4bev4zk-fill" stroke="none" fill="#484848"><g><text style="font: 20px &quot;Shantell Sans&quot;, cursive; white-space: pre;"><tspan x="95.03" y="35.33" dominant-baseline="ideographic">Implement </tspan><tspan x="23.48" y="59.33" dominant-baseline="ideographic">Recommendations</tspan></text></g></g></g><g id="g-root-tx_develops_zlbf3sbev6kh-fill" data-item-order="0" data-item-id="tx_develops_zlbf3sbev6kh" data-item-class="Label Stroke SceneTarget Indexed" data-item-index="3" data-renderer-id="0" transform="translate(482, 506)"><g id="tx_develops_zlbf3sbev6kh-fill" stroke="none" fill="#484848"><g><text style="font: 20px &quot;Shantell Sans&quot;, cursive; white-space: pre;"><tspan x="12" y="35.33" dominant-baseline="ideographic">Develop Strategic </tspan><tspan x="12" y="59.33" dominant-baseline="ideographic">Recommendations</tspan></text></g></g></g><g id="g-root-6.arrow-6_sy_dcyybcbev6rx-stroke" data-item-order="-194007" data-item-id="6.arrow-6_sy_dcyybcbev6rx" data-item-class="ScenePart Indexed Fill Stroke" data-item-index="6" data-renderer-id="0" transform="translate(146.26400756835938, 117.720947265625)"><g id="6.arrow-6_sy_dcyybcbev6rx-stroke" fill="none" stroke-linecap="round" stroke-linejoin="round" stroke-miterlimit="4" stroke="#484848" stroke-width="4"><g><path d="M 222.536 75.679C 208.636 65.279 195.636 53.679 182.336 42.479C 169.336 31.579 156.236 20.579 142.936 9.979C 143.836 17.979 147.236 25.379 149.136 33.179C 133.636 38.279 118.636 44.779 103.336 51.479C 86.236 59.079 72.136 72.679 57.536 85.979C 45.636 96.879 36.936 110.279 28.136 123.079C 20.136 134.579 15.636 147.979 10.036 160.479C 32.736 151.779 55.136 142.479 78.236 134.979C 88.536 149.679 95.636 166.479 105.236 181.779C 110.836 171.979 117.436 162.679 125.436 153.879C 138.636 139.279 156.036 130.479 173.836 125.879C 175.836 133.679 179.736 141.179 180.036 149.079C 192.836 123.879 208.236 100.079 222.536 75.679"></path><path d="M 222.547 75.674L 142.905 10L 149.089 33.155C 115.569 42.073 83.878 59.669 57.572 85.944C 35.741 107.749 19.883 133.27 10 160.473L 78.241 134.964L 105.215 181.762C 110.275 171.699 117.008 162.262 125.414 153.867C 139.341 139.956 156.118 130.641 173.864 125.919L 180.061 149.124L 222.547 75.674Z"></path></g></g></g><g id="g-root-5.arrow-5_sy_m8lyk8bev5z8-stroke" data-item-order="-194005" data-item-id="5.arrow-5_sy_m8lyk8bev5z8" data-item-class="ScenePart Indexed Fill Stroke" data-item-index="5" data-renderer-id="0" transform="translate(117.81201171875, 242.68505859375)"><g id="5.arrow-5_sy_m8lyk8bev5z8-stroke" fill="none" stroke-linecap="round" stroke-linejoin="round" stroke-miterlimit="4" stroke="#484848" stroke-width="4"><g><path d="M 85.888 164.615C 103.888 166.115 121.888 164.515 139.888 164.615C 124.188 137.615 118.588 106.715 125.888 77.315C 133.488 79.715 141.088 83.015 149.088 83.515C 136.488 58.215 119.588 35.215 106.688 10.015C 74.088 21.015 42.388 34.415 9.988 46.115C 17.888 47.215 25.488 50.015 33.188 52.315C 27.088 75.115 25.888 98.615 26.888 122.015C 27.788 144.415 33.588 166.715 43.288 187.315C 51.488 204.515 61.888 220.715 73.888 236.415C 76.988 225.715 77.588 214.415 79.388 203.315C 81.588 190.415 85.088 177.715 85.888 164.615"></path><path d="M 85.903 164.627L 139.927 164.659C 122.711 138.532 118.027 106.578 125.871 77.282L 149.066 83.515L 106.693 10L 10 46.144L 33.144 52.364C 16.363 115.044 29.941 184.165 73.891 236.435L 85.903 164.627Z"></path></g></g></g><g id="g-root-4.arrow-4_sy_m8lyk8bev5z7-stroke" data-item-order="-194003" data-item-id="4.arrow-4_sy_m8lyk8bev5z7" data-item-class="ScenePart Indexed Fill Stroke" data-item-index="4" data-renderer-id="0" transform="translate(176.68402099609375, 397.31201171875)"><g id="4.arrow-4_sy_m8lyk8bev5z7-stroke" fill="none" stroke-linecap="round" stroke-linejoin="round" stroke-miterlimit="4" stroke="#484848" stroke-width="4"><g><path d="M 27.016 94.888C 50.016 116.188 74.616 134.788 102.816 142.888C 136.916 152.688 171.916 156.688 206.716 151.588C 187.716 136.488 168.116 121.988 150.516 105.288C 159.516 89.688 168.516 74.088 177.616 58.488C 161.916 58.488 146.416 56.488 131.516 51.088C 118.016 46.288 106.216 37.288 94.916 26.988C 101.316 22.188 107.316 16.588 111.916 10.088C 83.616 9.088 55.316 10.188 27.016 9.988C 22.416 26.188 21.816 43.288 18.716 59.788C 15.416 77.088 12.116 94.388 10.016 111.788C 15.116 105.588 21.416 100.588 27.016 94.888"></path><path d="M 26.98 94.853C 75.846 143.777 143.375 162.703 206.68 151.617L 150.504 105.294L 177.566 58.509C 147.861 60.22 117.584 49.719 94.903 27.011L 111.883 10.05L 27.03 10L 10 111.813L 26.98 94.853Z"></path></g></g></g><g id="g-root-3.arrow-3_sy_qofgoobev56y-stroke" data-item-order="-194001" data-item-id="3.arrow-3_sy_qofgoobev56y" data-item-class="ScenePart Indexed Fill Stroke" data-item-index="3" data-renderer-id="0" transform="translate(317.18798828125, 386.51806640625)"><g id="3.arrow-3_sy_qofgoobev56y-stroke" fill="none" stroke-linecap="round" stroke-linejoin="round" stroke-miterlimit="4" stroke="#484848" stroke-width="4"><g><path d="M 127.312 9.982C 123.612 20.582 116.712 30.882 107.112 37.882C 91.312 49.582 76.712 62.482 58.712 65.882C 55.912 58.282 53.812 50.482 52.512 42.682C 44.312 54.382 39.212 68.082 31.012 79.782C 23.012 91.282 15.712 103.382 10.012 116.082C 35.412 139.282 63.312 159.582 89.612 181.782C 86.912 174.282 85.912 166.182 83.412 158.582C 117.212 150.782 148.312 131.682 175.012 105.782C 185.212 95.882 193.112 84.182 201.512 73.282C 211.212 60.682 218.612 46.282 222.512 31.282C 199.412 38.682 177.412 49.282 154.312 56.782C 145.912 40.882 137.912 24.582 127.312 9.982"></path><path d="M 127.333 10C 122.272 20.063 115.539 29.499 107.134 37.895C 93.207 51.806 76.429 61.121 58.683 65.843L 52.486 42.638L 10 116.088L 89.642 181.761L 83.458 158.607C 116.978 149.688 148.669 132.093 174.976 105.818C 196.806 84.013 212.664 58.492 222.548 31.289L 154.306 56.798L 127.333 10Z"></path></g></g></g><g id="g-root-2.arrow-2_sy_qofgoobev56x-stroke" data-item-order="-193999" data-item-id="2.arrow-2_sy_qofgoobev56x" data-item-class="ScenePart Indexed Fill Stroke" data-item-index="2" data-renderer-id="0" transform="translate(419.12200927734375, 206.8809814453125)"><g id="2.arrow-2_sy_qofgoobev56x-stroke" fill="none" stroke-linecap="round" stroke-linejoin="round" stroke-miterlimit="4" stroke="#484848" stroke-width="4"><g><path d="M 73.178 81.819C 55.178 83.219 37.078 80.819 19.178 81.819C 28.278 96.119 35.078 111.919 36.078 128.319C 36.978 142.019 37.878 156.119 33.178 169.119C 25.478 167.119 17.378 166.019 9.978 162.919C 17.478 175.619 25.378 188.119 32.078 201.219C 38.278 213.319 45.378 224.819 52.378 236.419C 68.178 229.019 85.178 224.319 101.478 218.119C 117.278 212.019 133.878 207.819 149.078 200.319C 141.678 197.319 133.878 195.219 125.878 194.119C 132.978 174.319 134.278 152.719 132.678 131.919C 130.878 108.819 126.978 85.619 117.778 63.919C 109.678 44.819 98.378 27.119 85.178 10.019C 81.378 21.519 79.478 33.719 79.178 45.819C 78.878 58.019 74.378 69.719 73.178 81.819"></path><path d="M 73.163 81.808L 19.139 81.776C 36.355 107.902 41.039 139.856 33.195 169.152L 10 162.919L 52.373 236.435L 149.066 200.29L 125.921 194.071C 142.703 131.39 129.125 62.269 85.175 10L 73.163 81.808Z"></path></g></g></g><g id="g-root-1.arrow-1_sy_zk2gxkbev4e8-stroke" data-item-order="-193997" data-item-id="1.arrow-1_sy_zk2gxkbev4e8" data-item-class="ScenePart Indexed Indexed_1 Fill Stroke" data-item-index="1" data-renderer-id="0" transform="translate(302.635009765625, 125.9859619140625)"><g id="1.arrow-1_sy_zk2gxkbev4e8-stroke" fill="none" stroke-linecap="round" stroke-linejoin="round" stroke-miterlimit="4" stroke="#484848" stroke-width="4"><g><path d="M 66.165 67.414C 58.765 83.814 47.965 98.514 39.065 114.214C 54.965 113.314 70.565 117.314 86.065 121.914C 99.465 125.914 110.665 135.714 121.765 145.714C 116.665 151.814 110.665 157.214 104.765 162.614C 133.065 161.614 161.365 164.114 189.665 162.714C 191.765 147.314 193.665 131.914 197.365 116.914C 201.765 98.514 203.365 79.514 206.665 60.914C 201.365 66.914 195.565 72.414 189.665 77.814C 175.365 61.014 156.565 49.614 137.865 40.114C 116.465 29.214 93.365 23.614 70.265 19.514C 50.365 16.014 29.465 15.714 9.965 21.114C 28.465 36.814 48.165 51.114 66.165 67.414"></path><path d="M 66.176 67.409L 39.114 114.194C 68.82 112.483 99.096 122.984 121.778 145.692L 104.797 162.653L 189.65 162.703L 206.681 60.889L 189.7 77.85C 140.834 28.926 73.305 10 10 21.086L 66.176 67.409Z"></path></g></g></g><g id="g-root-tx_continuo_1upaw54bev4sk-stroke" data-item-order="0" data-item-id="tx_continuo_1upaw54bev4sk" data-item-class="Label Stroke SceneTarget SceneTitle" data-item-index="none" data-renderer-id="0" transform="translate(50, 2)"></g><g id="g-root-tx_refinest_1unfgvsbev5s6-stroke" data-item-order="0" data-item-id="tx_refinest_1unfgvsbev5s6" data-item-class="Label Stroke SceneTarget Indexed" data-item-index="6" data-renderer-id="0" transform="translate(86, 122)"></g><g id="g-root-tx_analyzep_40cagbev47f-stroke" data-item-order="0" data-item-id="tx_analyzep_40cagbev47f" data-item-class="Label Stroke SceneTarget Indexed Indexed_1" data-item-index="1" data-renderer-id="0" transform="translate(482, 122)"></g><g id="g-root-1_1q6zho8bf6cqy-stroke" data-item-order="0" data-item-id="1_1q6zho8bf6cqy" data-item-class="Icon Stroke SceneTarget Indexed InsideFill" data-item-index="6" data-renderer-id="0" transform="translate(242, 176)"><g id="1_1q6zho8bf6cqy-stroke" fill="none" stroke-linecap="round" stroke-linejoin="round" stroke-miterlimit="4" stroke="#484848" stroke-width="2"><g><path d="M 49 33C 49.4 40.4 47.6 47.8 49 55C 49.2 56 48 57 47 57C 35.6 57.8 24.4 58 13 57C 11.8 57 10.8 56 11 55C 13 42.6 14.4 29.2 11 17C 10.8 16 12 15.2 13 15C 21.4 12.8 30.4 14.4 39 15M 35.6 38C 32.2 38.6 29.4 42 25.8 42.2C 27.4 39 29 35.8 30 32.4C 37.6 25.6 43.4 17.2 51.4 11C 53.2 13 55.8 14.2 57 16.6C 50.2 24 42.8 31 35.6 38M 53.4 20.4C 51.8 18 49.2 16.8 47.6 14.6M 35.6 38C 33.8 36 31.4 34.6 30 32.4"></path><path d="M 49 33L 49 55C 49 56.105 48.105 57 47 57L 13 57C 11.895 57 11 56.105 11 55L 11 17C 11 15.895 11.895 15 13 15L 39 15M 35.648 38.014L 25.75 42.254L 29.992 32.354L 51.348 11L 57.004 16.656L 35.648 38.014ZM 53.334 20.328L 47.676 14.67M 35.648 38.014L 29.992 32.354"></path></g></g></g><g id="g-root-mous_1uo1xywbf6e4v-stroke" data-item-order="0" data-item-id="mous_1uo1xywbf6e4v" data-item-class="Icon Stroke SceneTarget Indexed Indexed_1 InsideFill" data-item-index="1" data-renderer-id="0" transform="translate(386, 176)"><g id="mous_1uo1xywbf6e4v-stroke" fill="none" stroke-linecap="round" stroke-linejoin="round" stroke-miterlimit="4" stroke="#484848" stroke-width="2"><g><path d="M 57 46C 56.4 52 52 57.2 46 57C 40 56.8 35 52 35 46C 35 39 36.6 31.8 35 25C 34.2 21.8 37.8 20.2 41 19C 44.2 17.8 47.8 19.8 51 19C 54.2 18.2 57 21.6 57 25C 56.8 32 55.4 39.2 57 46M 46 19C 46.6 21.6 45.8 24.4 46 27M 48 33C 47.6 34 47 35 46 35C 44.8 35 44 34.2 44 33C 43.8 31.6 44.4 30.2 44 29C 43.6 28 45 27.2 46 27C 47 26.8 48 27.8 48 29C 48 30.4 47.6 31.8 48 33M 31 23C 29.6 23 28.4 23.2 27 23M 33.4 17.4C 32.2 16.6 31.4 15.6 30.6 14.6M 39 15C 39.2 13.6 39.6 12.2 39 11M 26 32C 24.8 32.6 23.2 31.8 22 32C 20.6 32.2 19.6 33 19.4 34.2C 19 35.4 19.6 37.2 21 37.2C 22.4 37.2 23.8 38 25 38.8C 26.2 39.6 27.4 40.8 26.8 41.8C 26 43 25.4 43.6 24 44C 22.8 44.4 21.2 43.4 20 44M 23 46C 23.2 45.4 22.8 44.6 23 44M 23 32C 22.8 31.4 23.2 30.6 23 30M 31.2 29.2C 26.8 24.4 19.4 25.6 14.4 29.6C 9.4 33.6 10.8 40.8 14.4 46.4C 17.8 51.8 26.8 51.8 31 47"></path><path d="M 57 46C 57 52.075 52.075 57 46 57C 39.925 57 35 52.075 35 46L 35 25C 35 21.686 37.686 19 41 19L 51 19C 54.314 19 57 21.686 57 25ZM 46.008 19L 46.008 27M 48 33C 48 34.105 47.105 35 46 35C 44.895 35 44 34.105 44 33L 44 29C 44 27.895 44.895 27 46 27C 47.105 27 48 27.895 48 29ZM 31.008 23L 27.008 23M 33.35 17.344L 30.522 14.514M 39.008 15L 39.008 11M 26 32L 21.942 32C 20.657 32.001 19.553 32.913 19.309 34.175C 19.065 35.437 19.75 36.694 20.942 37.174L 25.07 38.826C 26.262 39.305 26.947 40.562 26.704 41.823C 26.461 43.085 25.358 43.997 24.074 44L 20 44M 23.008 46L 23.008 44M 23.008 32L 23.008 30M 31.11 29.148C 26.334 24.777 18.952 24.982 14.426 29.612C 9.901 34.243 9.864 41.628 14.344 46.302C 18.823 50.977 26.203 51.256 31.022 46.932"></path></g></g></g><g id="g-root-tx_monitoro_1hclflkbev47b-stroke" data-item-order="0" data-item-id="tx_monitoro_1hclflkbev47b" data-item-class="Label Stroke SceneTarget Indexed" data-item-index="5" data-renderer-id="0" transform="translate(2, 314)"></g><g id="g-root-2_1cvizawbf6ebv-stroke" data-item-order="0" data-item-id="2_1cvizawbf6ebv" data-item-class="Icon Stroke SceneTarget Indexed InsideFill" data-item-index="5" data-renderer-id="0" transform="translate(158, 314)"><g id="2_1cvizawbf6ebv-stroke" fill="none" stroke-linecap="round" stroke-linejoin="round" stroke-miterlimit="4" stroke="#484848" stroke-width="2"><g><path d="M 43 14C 44.8 14.6 47 14.2 49 14C 49 16 49.6 18 49 20M 12 28C 15 26.2 17.4 23.4 20.6 22C 21.6 21.6 22.4 21.8 23.2 22.2C 23.4 22.4 23.6 22.6 23.8 22.8C 24.6 23.4 25.4 23.4 26.4 23C 28 22.4 29.4 21 30.8 19.8C 31.4 19.2 32.6 19.2 33.2 20C 34 20.8 34.8 21.4 35.8 22C 36.6 22.6 37.8 22.8 38.2 22C 41 18.4 45 16 49 14M 19 47C 19.2 46.4 18.6 46 18 46C 16.6 46.2 15.2 46.4 14 46C 13.4 45.8 13 46.4 13 47C 12.8 49.4 12.8 51.6 13 54C 15 54.4 17 54.4 19 54C 18.2 51.8 19 49.4 19 47M 31 37C 31.2 36.4 30.6 36 30 36C 28.6 36.2 27.4 36 26 36C 25.4 36 25 36.4 25 37C 24.4 42.6 26.2 48.4 25 54C 27 53.6 29 54 31 54C 32 48.4 32.2 42.6 31 37M 43 43C 42.8 42.4 42.6 41.8 42 42C 40.8 42.4 39.4 41.8 38 42C 37.4 42 37 42.4 37 43C 37.2 46.6 37 50.4 37 54C 39 54.2 41 54.4 43 54C 43.4 50.4 41.6 46.4 43 43M 55 27C 55 26.4 54.6 25.8 54 26C 52.8 26.4 51.4 25.8 50 26C 49.4 26 49.2 26.4 49 27C 46 35.6 47.4 45.2 49 54C 50.8 53.2 53 54.2 55 54C 54 45 53.6 35.8 55 27M 11 54C 26 50.8 42 57 57 54"></path><path d="M 43.008 14L 49.008 14L 49.008 20M 12 28L 20.634 21.962C 21.429 21.406 22.508 21.5 23.194 22.186L 23.81 22.802C 24.501 23.493 25.59 23.584 26.386 23.016L 30.786 19.88C 31.513 19.36 32.497 19.386 33.196 19.944L 35.796 22.032C 36.508 22.602 37.516 22.618 38.246 22.07L 49 14M 19 47C 19 46.448 18.552 46 18 46L 14 46C 13.448 46 13 46.448 13 47L 13 54L 19 54ZM 31 37C 31 36.448 30.552 36 30 36L 26 36C 25.448 36 25 36.448 25 37L 25 54L 31 54ZM 43 43C 43 42.448 42.552 42 42 42L 38 42C 37.448 42 37 42.448 37 43L 37 54L 43 54ZM 55 27C 55 26.448 54.552 26 54 26L 50 26C 49.448 26 49 26.448 49 27L 49 54L 55 54ZM 11.008 54L 57.008 54"></path></g></g></g><g id="g-root-bars_8yeed4bf6cr2-stroke" data-item-order="0" data-item-id="bars_8yeed4bf6cr2" data-item-class="Icon Stroke SceneTarget Indexed InsideFill" data-item-index="2" data-renderer-id="0" transform="translate(470, 314)"><g id="bars_8yeed4bf6cr2-stroke" fill="none" stroke-linecap="round" stroke-linejoin="round" stroke-miterlimit="4" stroke="#484848" stroke-width="2"><g><path d="M 10.8 49C 26.2 49 41.6 49 56.8 49M 18.8 49C 18.4 46 19.2 43 18.8 40C 18.8 39.4 18.4 39 17.8 39C 16.6 39 15.2 39.2 13.8 39C 13.4 39 12.8 39.4 12.8 40C 12.8 43 11.8 46.2 12.8 49M 30.8 49C 29 43 31 36.4 30.8 30C 30.8 29.4 30.4 29.2 29.8 29C 28.6 28.6 27.2 29.4 25.8 29C 25.4 28.8 24.8 29.4 24.8 30C 25.6 36.2 27.2 43.2 24.8 49M 42.8 49C 44.2 44.2 43.6 39 42.8 34C 42.8 33.4 42.4 33.2 41.8 33C 40.6 32.6 39.2 32.6 37.8 33C 37.4 33.2 37 33.4 36.8 34C 36.6 39 37 44 36.8 49M 54.8 49C 57.4 39.6 55.8 29.6 54.8 20C 54.8 19.4 54.4 18.8 53.8 19C 52.6 19.2 51.2 19.4 49.8 19C 49.4 18.8 48.8 19.4 48.8 20C 52 29.2 48.4 39.4 48.8 49"></path><path d="M 10.882 49L 56.882 49M 18.882 49L 18.882 40C 18.882 39.448 18.434 39 17.882 39L 13.882 39C 13.33 39 12.882 39.448 12.882 40L 12.882 49M 30.882 49L 30.882 30C 30.882 29.448 30.434 29 29.882 29L 25.882 29C 25.33 29 24.882 29.448 24.882 30L 24.882 49M 42.882 49L 42.882 34C 42.882 33.448 42.434 33 41.882 33L 37.882 33C 37.33 33 36.882 33.448 36.882 34L 36.882 49M 54.882 49L 54.882 20C 54.882 19.448 54.434 19 53.882 19L 49.882 19C 49.33 19 48.882 19.448 48.882 20L 48.882 49"></path></g></g></g><g id="g-root-tx_gatherda_deudkobev5sa-stroke" data-item-order="0" data-item-id="tx_gatherda_deudkobev5sa" data-item-class="Label Stroke SceneTarget Indexed" data-item-index="2" data-renderer-id="0" transform="translate(572, 326)"></g><g id="g-root-chec_zkoy0obf6cr0-stroke" data-item-order="0" data-item-id="chec_zkoy0obf6cr0" data-item-class="Icon Stroke SceneTarget Indexed InsideFill" data-item-index="4" data-renderer-id="0" transform="translate(242, 452)"><g id="chec_zkoy0obf6cr0-stroke" fill="none" stroke-linecap="round" stroke-linejoin="round" stroke-miterlimit="4" stroke="#484848" stroke-width="2"><g><path d="M 48 17.2C 48.6 17 49.4 17.4 50 17.2C 51 17 52 18.2 52 19.2C 52.6 31.2 51 43.2 52 55C 52 56.2 51 56.8 50 57C 39.8 60 28.6 57.6 18 57C 16.8 57 16 56 16 55C 15.2 43.2 15.4 31.2 16 19.2C 16 18.2 17 17 18 17.2C 18.6 17.6 19.4 17.6 20 17.2M 38 15C 38.4 12.8 36 11.8 34 11C 32 10.2 30.6 12.8 30 15C 28.4 15.2 26.6 15.2 25 15C 24.4 15 23.8 15.4 24 16C 24.4 17.2 23.8 18.6 24 20C 24 20.6 24.4 21 25 21C 31 21 37 21.8 43 21C 43.6 21 43.8 20.6 44 20C 44.4 18.8 44.2 17.4 44 16C 43.8 15.4 43.6 15 43 15C 41.4 14.8 39.6 15 38 15M 42 37C 40.8 41.2 38.4 44.6 34 45C 29.6 45.4 25.2 41.4 26 37C 26.8 32.6 29.6 29 34 29M 42 31C 40.6 34.2 37.4 36.2 34.8 38.2C 34.6 38.4 34.2 38.6 34 38.6C 33.8 38.6 33.4 38.6 33.2 38.2C 32.8 37.4 31.4 37 31 36"></path><path d="M 48 17.292L 50 17.292C 51.105 17.292 52 18.187 52 19.292L 52 55C 52 56.105 51.105 57 50 57L 18 57C 16.895 57 16 56.105 16 55L 16 19.292C 16 18.187 16.895 17.292 18 17.292L 20 17.292M 38 15C 38 12.791 36.209 11 34 11C 31.791 11 30 12.791 30 15L 25 15C 24.448 15 24 15.448 24 16L 24 20C 24 20.552 24.448 21 25 21L 43 21C 43.552 21 44 20.552 44 20L 44 16C 44 15.448 43.552 15 43 15ZM 42 37C 42 41.418 38.418 45 34 45C 29.582 45 26 41.418 26 37C 26 32.582 29.582 29 34 29M 42 31L 34.708 38.292C 34.52 38.48 34.266 38.586 34 38.586C 33.734 38.586 33.48 38.48 33.292 38.292L 31 36"></path></g></g></g><g id="g-root-stra_m98fncbf6ebx-stroke" data-item-order="0" data-item-id="stra_m98fncbf6ebx" data-item-class="Icon Stroke SceneTarget Indexed InsideFill" data-item-index="3" data-renderer-id="0" transform="translate(386, 452)"><g id="stra_m98fncbf6ebx-stroke" fill="none" stroke-linecap="round" stroke-linejoin="round" stroke-miterlimit="4" stroke="#484848" stroke-width="2"><g><path d="M 12 50C 12.4 53.2 14.8 55.2 18 56C 21.2 56.8 23.4 53.2 24 50C 24.6 46.8 21.2 44.6 18 44C 14.8 43.4 11.4 46.8 12 50M 28 44C 32 44.6 36.2 45.4 40 44C 39.2 48 41.2 52.2 40 56C 36.2 54.6 31.8 57 28 56C 26.8 52.2 28.8 48 28 44M 50 44C 47.2 47.4 46.2 52.2 44 56C 48 55.8 52.2 54.8 56 56C 55.6 51.6 51.4 48.2 50 44M 37 34C 35 34.2 33 34.6 31 34M 40 23C 40.8 19.8 37.2 18 34 17C 30.8 16.6 28.8 19.8 28 23C 28 25 29 27.2 31 28C 31 28.6 31 29.4 31 30C 32.8 29.4 35 30.2 37 30C 37.2 29.4 36.8 28.6 37 28C 39 27.2 40.4 25 40 23M 18 44C 18 42.4 17.8 40.6 18 39C 18 38.4 18.4 38 19 38C 29 37.6 39.2 40.2 49 38C 49.6 37.8 49.8 38.4 50 39C 50.4 40.6 50 42.4 50 44M 34 34C 33.6 37.4 35.2 40.8 34 44M 34 12C 34 12.6 34 13.4 34 14M 41.8 15.2C 41.4 15.8 41 16.2 40.4 16.6M 45 22C 44.4 21.8 43.6 22.2 43 22M 26.2 15.2C 26.6 15.8 27 16.4 27.6 16.6M 23 22C 23.6 21.8 24.4 21.8 25 22"></path><path d="M 12 50C 12 53.314 14.686 56 18 56C 21.314 56 24 53.314 24 50C 24 46.686 21.314 44 18 44C 14.686 44 12 46.686 12 50M 28 44L 40 44L 40 56L 28 56ZM 50 44L 44 56L 56 56L 50 44ZM 37 34L 31 34M 40 23C 39.906 19.726 37.274 17.094 34 17C 30.726 17.094 28.094 19.726 28 23C 28.045 25.08 29.186 26.981 31 28L 31 30L 37 30L 37 28C 38.814 26.981 39.955 25.08 40 23ZM 18 44L 18 39C 18 38.448 18.448 38 19 38L 49 38C 49.552 38 50 38.448 50 39L 50 44M 34 34L 34 44M 34 12L 34 14M 41.78 15.22L 40.36 16.64M 45 22L 43 22M 26.22 15.22L 27.64 16.64M 23 22L 25 22"></path></g></g></g><g id="g-root-tx_implemen_1cwrxh4bev4zk-stroke" data-item-order="0" data-item-id="tx_implemen_1cwrxh4bev4zk" data-item-class="Label Stroke SceneTarget Indexed" data-item-index="4" data-renderer-id="0" transform="translate(2, 506)"></g><g id="g-root-tx_develops_zlbf3sbev6kh-stroke" data-item-order="0" data-item-id="tx_develops_zlbf3sbev6kh" data-item-class="Label Stroke SceneTarget Indexed" data-item-index="3" data-renderer-id="0" transform="translate(482, 506)"></g></g></svg>